<svg xmlns="http://www.w3.org/2000/svg" viewBox="0 0 32 32" fill="none">
  <defs>
    <linearGradient id="g1" x1="0%" y1="0%" x2="100%" y2="100%">
      <stop offset="0%" style="stop-color:#007acc"/>
      <stop offset="100%" style="stop-color:#00d4ff"/>
    </linearGradient>
    <linearGradient id="g2" x1="100%" y1="0%" x2="0%" y2="100%">
      <stop offset="0%" style="stop-color:#007acc"/>
      <stop offset="100%" style="stop-color:#0062a3"/>
    </linearGradient>
  </defs>
  
  <!-- 左花括号 -->
  <path d="M12 4C9 4 7 6 7 9V13C7 14.5 6 16 4 16C6 16 7 17.5 7 19V23C7 26 9 28 12 28" 
        stroke="url(#g1)" stroke-width="3" stroke-linecap="round" stroke-linejoin="round" fill="none"/>
  
  <!-- 右花括号 -->
  <path d="M20 4C23 4 25 6 25 9V13C25 14.5 26 16 28 16C26 16 25 17.5 25 19V23C25 26 23 28 20 28" 
        stroke="url(#g2)" stroke-width="3" stroke-linecap="round" stroke-linejoin="round" fill="none"/>
  
  <!-- 中心点 -->
  <circle cx="16" cy="12" r="2" fill="url(#g1)"/>
  <circle cx="16" cy="20" r="2" fill="url(#g2)"/>
</svg>