<svg xmlns="http://www.w3.org/2000/svg" viewBox="0 0 64 64" fill="none">
  <defs>
    <linearGradient id="grad1" x1="0%" y1="0%" x2="100%" y2="100%">
      <stop offset="0%" style="stop-color:#007acc"/>
      <stop offset="100%" style="stop-color:#00d4ff"/>
    </linearGradient>
    <linearGradient id="grad2" x1="100%" y1="0%" x2="0%" y2="100%">
      <stop offset="0%" style="stop-color:#007acc"/>
      <stop offset="100%" style="stop-color:#0062a3"/>
    </linearGradient>
  </defs>
  
  <!-- 左花括号 - 渐变填充 -->
  <path d="M24 8C18 8 14 12 14 18V26C14 29 12 32 8 32C12 32 14 35 14 38V46C14 52 18 56 24 56" 
        stroke="url(#grad1)" stroke-width="6" stroke-linecap="round" stroke-linejoin="round" fill="none"/>
  
  <!-- 右花括号 - 渐变填充 -->
  <path d="M40 8C46 8 50 12 50 18V26C50 29 52 32 56 32C52 32 50 35 50 38V46C50 52 46 56 40 56" 
        stroke="url(#grad2)" stroke-width="6" stroke-linecap="round" stroke-linejoin="round" fill="none"/>
  
  <!-- 中心装饰点 -->
  <circle cx="32" cy="24" r="3.5" fill="url(#grad1)"/>
  <circle cx="32" cy="40" r="3.5" fill="url(#grad2)"/>
</svg>